<svg viewBox="0 0 60 60" xmlns="http://www.w3.org/2000/svg" width="60" height="60" fill="none">
  <path d="m27.215 25.1-.407-1.166-.375-1.075-.977-2.8-.125-.358-.907-2.598-5.261-15.077 6.269 14.686 1.08 2.531.149.35 1.164 2.727.447 1.047.485 1.135.099.232.043.1.08.19.161.376.014-.408.007-.207.004-.109.008-.251.042-1.234.038-1.138.1-2.964.014-.38.093-2.75L30 0l.54 15.96.093 2.75.013.379.1 2.964.04 1.138.04 1.233.01.252.003.109.007.207.014.408.16-.375.081-.191.043-.1.099-.232.485-1.135.447-1.047 1.164-2.728.149-.349 1.08-2.53 6.27-14.687-5.262 15.077-.907 2.598-.125.358-.977 2.8-.375 1.075-.407 1.165-.083.238-.036.103-.068.196-.134.385.285-.292.144-.148.076-.078.176-.18.862-.884.795-.815 2.071-2.123.265-.272 1.922-1.969L50.21 7.83 39.859 19.988l-1.783 2.095-.247.289-1.922 2.258-.738.867-.8.94-.164.191-.07.083-.135.158-.264.31.37-.169.19-.086.099-.045.228-.104 1.124-.513 1.035-.473 2.698-1.231.346-.158 2.503-1.142 14.527-6.63-14.046 7.597-2.42 1.31-.334.18-2.608 1.411-1.001.542-1.086.587-.222.12-.096.052-.182.098-.359.194.407-.024.207-.012.11-.006.25-.015 1.233-.072 1.136-.067 2.961-.173.379-.023 2.747-.16 15.941-.935-15.842 2.01-2.73.347-.376.048-2.942.373-1.13.143-1.224.156-.25.032-.108.013-.205.027-.405.05.388.126.198.063.103.033.24.077 1.175.378 1.084.349 2.824.907.36.117 2.62.842 15.203 4.887-15.498-3.848-2.67-.663-.37-.091-2.878-.715-1.104-.274-1.198-.298-.245-.06-.106-.027-.2-.05-.397-.098.317.257.161.13.085.069.195.158h.001l.96.777.884.716 2.305 1.867.295.239 2.138 1.731 12.41 10.049-13.061-9.187-2.25-1.582-.311-.219-2.426-1.706-.931-.655-1.01-.71-.206-.145-.089-.063-.17-.119-.333-.234.203.353.103.18.054.095.125.218.614 1.071.566.988 1.476 2.573.188.329 1.369 2.387 7.942 13.854-8.861-13.285-1.527-2.29-1.856-2.782-.632-.947-.685-1.027-.14-.21-.06-.09-.115-.173-.226-.339.06.403.032.205.016.108.038.248v.001l.186 1.22.171 1.126.446 2.932.057.375.414 2.72 2.402 15.787-3.464-15.588-.597-2.686-.082-.37-.644-2.896-.247-1.111-.267-1.205-.055-.246-.024-.107-.044-.202-.09-.398-.088.398-.045.202-.024.107-.055.245-.267 1.206-.247 1.11-.644 2.896-.082.37-.597 2.687-3.463 15.588 2.4-15.787.415-2.72.057-.375.446-2.932.171-1.126.186-1.22.038-.25.016-.107.031-.205.061-.403-.226.34-.115.172-.06.09-.14.21-.685 1.027-.632.947-1.646 2.467-.21.316-1.527 2.289-8.861 13.285 7.942-13.854 1.369-2.387.188-.33 1.476-2.572.566-.988.614-1.07v-.001l.125-.218.054-.095.103-.18.203-.353-.334.234-.169.12-.09.062-.205.145-1.01.71-.93.655-2.427 1.706-.31.219-2.25 1.582L6.058 48.08 18.47 38.03l2.14-1.731.294-.24 2.305-1.866.885-.716.96-.777.195-.158.085-.069.16-.13.318-.257-.396.098-.201.05-.106.026-.244.061-1.199.298-1.104.274-2.879.715-.368.091-2.67.663L1.144 38.21l15.203-4.887 2.62-.842.36-.117 2.824-.907 1.084-.349 1.175-.378.24-.077.104-.033.197-.063.388-.125-.405-.051-.205-.027-.108-.013-.25-.032-1.225-.155-1.129-.144-2.942-.373-.377-.048-2.73-.346L.129 27.232l15.941.934 2.747.162.379.022 2.96.173 1.137.067 1.232.072.252.015.109.006.206.012.408.024-.36-.194-.181-.098-.096-.052-.221-.12-1.086-.587-1.002-.542-2.608-1.411-.334-.18-2.42-1.31-14.046-7.597 14.527 6.63 2.503 1.142.346.158 2.698 1.231 1.035.473 1.123.512.23.105.099.045.188.086.371.17-.264-.31-.134-.159-.071-.083-.163-.191-.8-.94-.739-.867-1.922-2.258-.247-.29-1.783-2.094L9.789 7.83 20.94 19.26l1.922 1.97.265.271 2.07 2.123.796.815.862.883.176.18.076.079.145.148.284.292-.134-.385-.068-.196-.036-.103zM30 26.121l-1.401.262-1.212.75-.859 1.137-.39 1.371.132 1.42.635 1.275 1.053.96 1.33.515h1.425l1.329-.514 1.053-.96.635-1.277.132-1.419-.39-1.37-.86-1.138-1.211-.75z" fill="#242424" fill-rule="evenodd"/>
</svg>
